<?xml version="1.0" encoding="UTF-8" standalone="no"?>
<svg
   version="1.1"
   width="170.74937pt"
   height="38.354053pt"
   viewBox="0 0 170.74939 38.354056"
   id="svg32"
   xmlns="http://www.w3.org/2000/svg"
   xmlns:svg="http://www.w3.org/2000/svg">
  <defs
     id="defs32" />
  <g
     enable-background="new"
     id="g32"
     transform="matrix(0.0553727,0,0,0.0553727,-29.985056,-96.182847)"
     style="display:inline">
    <g
       id="Layer-1"
       data-name="Layer 1">
      <path
         transform="matrix(2.7777777,0,0,-2.7777777,1146.4911,2261.168)"
         d="m 0,0 h -9.18 l 0.01,76.67 -80.235,55.301 v 10.614 L 0.042,80.56 0.084,80.621 Z m -11.475,0 h -9.158 l 10e-4,71.645 -68.773,47.865 v 9.681 l 77.941,-53.677 z m -0.001,-8.257 -9.157,-0.003 v 5.965 h 9.158 z M -22.927,0 h -169.636 v 80.941 l 9.167,6.563 V 7.627 h 10e-4 V 7.558 h 36.681 v 2.476 h -0.001 v 103.727 l 9.168,6.562 V 48.925 48.908 h 25.217 v 0.017 h 0.001 v 83.745 l 9.168,-6.381 V 10.034 7.558 h 68.773 2.294 v 2.476 66.791 l 9.167,-6.38 z m 0,-8.261 -169.636,-0.055 v 6.021 h 169.636 z m 0,-8.371 h -169.636 v 6.022 l 169.636,0.055 z m -158.174,105.778 9.168,6.563 V 10.034 h -9.168 z m 11.462,8.205 9.168,6.563 v -93.88 h -9.168 z m 11.462,8.205 9.168,6.563 V 10.034 h -9.168 z m 22.924,16.41 9.168,6.563 V 51.385 h -9.168 z m 34.386,2.726 9.168,-6.38 V 10.034 h -9.168 z m 0,12.393 9.168,-6.313 v -9.665 l -9.168,6.38 z m 22.925,-28.349 9.184,-6.392 h -0.017 v -92.31 h -9.167 z m 11.461,-7.977 9.168,-6.381 V 10.034 h -9.168 z m 11.463,-7.978 9.201,-6.405 h -0.034 V 10.034 h -9.167 z m 11.461,-7.978 9.169,-6.381 V 10.034 h -9.169 z m -45.848,31.911 9.168,-6.381 V 10.034 h -9.168 z M -194.857,0 h -9.168 v 72.736 l 9.168,6.563 z m 0,-8.316 h -9.16699 v 6.021 h 9.16699 z M -206.319,0 h -9.168 v 64.531 l 9.168,6.563 z M 0.087,83.32 -91.699,146.968 v -2.254 -0.538 -10.624 l -11.462,7.9 v -2.787 -9.581 l -11.463,7.978 v -2.795 -82.882 h -9.167 v 78.786 1.35 1.696 l -94.001,-67.29 0.035,-0.048 h -0.024 V 0 -0.627 -2.295 h 11.462 v -8.237 h 0.094 v -0.078 h 11.368 v -8.177 h 0.188 v -0.139 h 171.742 2.294 v 8.372 l 11.451,0.003 0.001,8.256 h 9.179 V -2.302 H 2.292 V -2.295 0 81.82 Z"
         id="path1" />
      <path
         transform="matrix(2.7777777,0,0,-2.7777777,1385.8711,2089.122)"
         d="M 0,0 V 70.922 H 48.641 V 66.327 H 5.369 V 38.159 H 42.113 V 33.763 H 5.369 V 0 Z"
         id="path2" />
      <clipPath
         id="cp0">
        <path
           transform="matrix(2.7777777,0,0,-2.7777777,0,4166.6667)"
           d="M 0,1500 H 1500 V 0 H 0 Z"
           id="path3" />
      </clipPath>
      <g
         clip-path="url(#cp0)"
         id="g31">
        <path
           transform="matrix(2.7777777,0,0,-2.7777777,1556.9539,2001.7172)"
           d="m 0,0 h 26.216 c 3.227,0 6.034,0.832 8.422,2.497 2.385,1.664 4.227,3.828 5.528,6.493 1.297,2.663 1.947,5.494 1.947,8.49 0,3.063 -0.755,5.91 -2.263,8.541 -1.511,2.63 -3.511,4.761 -6.002,6.393 -2.492,1.631 -5.282,2.447 -8.369,2.447 H 0 Z m -5.37,-31.466 v 70.922 h 31.059 c 3.228,0 6.159,-0.634 8.791,-1.897 2.632,-1.266 4.913,-2.948 6.844,-5.045 1.929,-2.098 3.438,-4.445 4.527,-7.042 1.087,-2.598 1.632,-5.262 1.632,-7.992 0,-3.53 -0.737,-6.826 -2.212,-9.888 C 43.798,4.527 41.745,1.963 39.112,-0.1 36.48,-2.165 33.41,-3.431 29.9,-3.896 l 18.636,-27.57 H 42.324 L 24.215,-4.695 H 0 v -26.771 z"
           id="path4" />
        <path
           transform="matrix(2.7777777,0,0,-2.7777777,1852.619,2076.3592)"
           d="M 0,0 V -4.595 H -49.799 V 66.327 H -0.948 V 61.732 H -44.43 V 33.863 H -6.422 V 29.468 H -44.43 V 0 Z"
           id="path5" />
        <path
           transform="matrix(2.7777777,0,0,-2.7777777,1994.1691,1924.8576)"
           d="m 0,0 c -1.194,1.264 -2.527,2.38 -4.001,3.347 -1.474,0.964 -3.053,1.763 -4.737,2.397 -1.685,0.631 -3.511,1.113 -5.475,1.448 -1.966,0.332 -4.072,0.5 -6.317,0.5 -7.301,0 -12.617,-1.315 -15.95,-3.942 -3.335,-2.626 -5.002,-6.167 -5.002,-10.621 0,-2.993 0.754,-5.371 2.264,-7.132 1.509,-1.763 3.877,-3.175 7.107,-4.24 3.228,-1.064 7.404,-2.094 12.528,-3.09 5.404,-1.064 10.071,-2.311 14.003,-3.741 3.93,-1.43 6.965,-3.376 9.107,-5.836 2.14,-2.46 3.211,-5.784 3.211,-9.973 0,-3.125 -0.632,-5.868 -1.895,-8.229 -1.263,-2.361 -3.089,-4.305 -5.475,-5.835 -2.387,-1.53 -5.211,-2.693 -8.475,-3.49 -3.264,-0.798 -6.896,-1.197 -10.897,-1.197 -3.861,0 -7.546,0.399 -11.055,1.198 -3.51,0.799 -6.808,1.964 -9.896,3.496 -3.09,1.531 -5.966,3.497 -8.633,5.894 l 2.842,4.096 c 1.543,-1.599 3.28,-3.014 5.212,-4.246 1.93,-1.233 4.035,-2.282 6.317,-3.146 2.279,-0.866 4.719,-1.549 7.317,-2.049 2.596,-0.498 5.298,-0.749 8.107,-0.749 6.527,0 11.633,1.146 15.319,3.44 3.684,2.293 5.527,5.7 5.527,10.221 0,3.124 -0.842,5.651 -2.527,7.58 -1.684,1.929 -4.282,3.508 -7.791,4.739 -3.511,1.23 -7.896,2.377 -13.16,3.441 -5.264,1.064 -9.74,2.262 -13.424,3.592 -3.685,1.329 -6.459,3.125 -8.317,5.386 -1.86,2.261 -2.79,5.319 -2.79,9.178 0,4.254 1.105,7.863 3.316,10.822 2.211,2.959 5.317,5.203 9.318,6.733 4.001,1.53 8.597,2.294 13.792,2.294 3.227,0 6.228,-0.3 9.001,-0.899 2.772,-0.599 5.334,-1.515 7.686,-2.746 2.351,-1.234 4.544,-2.782 6.58,-4.646 z"
           id="path6" />
        <path
           transform="matrix(2.7777777,0,0,-2.7777777,2193.6197,1892.117)"
           d="m 0,0 v -70.922 h -5.369 v 33.963 h -47.167 v -33.963 h -5.37 V 0 h 5.37 V -32.364 H -5.369 V 0 Z"
           id="path7" />
        <path
           transform="matrix(2.7777777,0,0,-2.7777777,0,4166.6667)"
           d="m 829.918,818.838 h 5.36907 V 747.916 H 829.918 Z"
           id="path8" />
        <path
           transform="matrix(2.7777777,0,0,-2.7777777,2372.008,1918.4761)"
           d="M 0,0 V -61.433 H -5.369 V 9.489 h 4.422 L 51.168,-52.942 V 9.489 h 5.369 v -70.922 h -5.264 z"
           id="path9" />
        <path
           transform="matrix(2.7777777,0,0,-2.7777777,2710.666,1904.8799)"
           d="m 0,0 h -27.373 v -66.327 h -5.37 V 0 H -60.116 V 4.595 H 0 Z"
           id="path10" />
        <path
           transform="matrix(2.7777777,0,0,-2.7777777,2863.6148,2076.3592)"
           d="M 0,0 V -4.595 H -49.799 V 66.327 H -0.947 V 61.732 H -44.43 V 33.863 H -6.422 V 29.468 H -44.43 V 0 Z"
           id="path11" />
        <path
           transform="matrix(2.7777777,0,0,-2.7777777,2901.6329,2001.7172)"
           d="m 0,0 h 26.217 c 3.226,0 6.034,0.832 8.422,2.497 2.384,1.664 4.227,3.828 5.527,6.493 1.298,2.663 1.948,5.494 1.948,8.49 0,3.063 -0.756,5.91 -2.264,8.541 -1.51,2.63 -3.51,4.761 -6.001,6.393 -2.492,1.631 -5.282,2.447 -8.37,2.447 H 0 Z m -5.369,-31.466 v 70.922 h 31.058 c 3.228,0 6.16,-0.634 8.791,-1.897 2.633,-1.266 4.913,-2.948 6.844,-5.045 1.93,-2.098 3.438,-4.445 4.528,-7.042 1.086,-2.598 1.631,-5.262 1.631,-7.992 0,-3.53 -0.737,-6.826 -2.211,-9.888 C 43.798,4.527 41.745,1.963 39.113,-0.1 36.48,-2.165 33.41,-3.431 29.9,-3.896 l 18.636,-27.57 H 42.324 L 24.216,-4.695 H 0 v -26.771 z"
           id="path12" />
        <path
           transform="matrix(2.7777777,0,0,-2.7777777,0,4166.6667)"
           d="m 1101.229,818.838 h 5.369 v -70.922 h -5.369 z"
           id="path13" />
        <path
           transform="matrix(2.7777777,0,0,-2.7777777,3111.3199,1990.6183)"
           d="m 0,0 c 0,-4.063 0.736,-7.959 2.211,-11.687 1.474,-3.73 3.526,-7.06 6.159,-9.99 2.632,-2.93 5.754,-5.26 9.37,-6.991 3.614,-1.733 7.597,-2.598 11.949,-2.598 4.422,0 8.457,0.899 12.108,2.697 3.649,1.798 6.773,4.195 9.371,7.192 2.596,2.997 4.58,6.343 5.948,10.04 1.368,3.695 2.053,7.474 2.053,11.337 0,4.061 -0.721,7.957 -2.158,11.688 -1.44,3.728 -3.492,7.057 -6.159,9.988 -2.668,2.929 -5.809,5.26 -9.423,6.992 -3.616,1.731 -7.529,2.597 -11.74,2.597 -4.492,0 -8.564,-0.899 -12.211,-2.697 C 13.826,26.77 10.721,24.373 8.16,21.376 5.597,18.38 3.596,15.033 2.158,11.337 0.719,7.641 0,3.861 0,0 m 29.585,-35.96 c -5.195,0 -9.934,1.014 -14.214,3.046 -4.282,2.031 -7.967,4.745 -11.055,8.141 -3.088,3.396 -5.474,7.242 -7.159,11.537 C -4.527,-8.94 -5.37,-4.53 -5.37,0 c 0,4.728 0.878,9.24 2.633,13.535 1.754,4.296 4.227,8.124 7.422,11.487 3.193,3.363 6.913,6.027 11.16,7.992 4.246,1.963 8.86,2.946 13.844,2.946 5.265,0 10.019,-1.033 14.266,-3.096 4.247,-2.066 7.913,-4.829 11.003,-8.291 3.087,-3.464 5.474,-7.326 7.159,-11.587 C 63.801,8.723 64.644,4.395 64.644,0 c 0,-4.795 -0.879,-9.34 -2.632,-13.635 -1.755,-4.296 -4.23,-8.126 -7.423,-11.488 -3.194,-3.363 -6.914,-6.01 -11.16,-7.941 -4.247,-1.932 -8.862,-2.896 -13.844,-2.896"
           id="path14" />
        <path
           transform="matrix(2.7777777,0,0,-2.7777777,3328.3175,2001.7172)"
           d="m 0,0 h 26.216 c 3.226,0 6.035,0.832 8.422,2.497 2.385,1.664 4.227,3.828 5.527,6.493 1.298,2.663 1.948,5.494 1.948,8.49 0,3.063 -0.756,5.91 -2.263,8.541 -1.511,2.63 -3.511,4.761 -6.002,6.393 -2.492,1.631 -5.282,2.447 -8.369,2.447 H 0 Z m -5.369,-31.466 v 70.922 h 31.057 c 3.229,0 6.16,-0.634 8.792,-1.897 2.632,-1.266 4.913,-2.948 6.843,-5.045 1.93,-2.098 3.439,-4.445 4.528,-7.042 1.087,-2.598 1.631,-5.262 1.631,-7.992 0,-3.53 -0.737,-6.826 -2.211,-9.888 C 43.798,4.527 41.744,1.963 39.112,-0.1 36.48,-2.165 33.409,-3.431 29.9,-3.896 l 18.635,-27.57 H 42.323 L 24.215,-4.695 H 0 v -26.771 z"
           id="path15" />
        <path
           transform="matrix(2.7777777,0,0,-2.7777777,3606.4344,1924.8576)"
           d="m 0,0 c -1.194,1.264 -2.527,2.38 -4.001,3.347 -1.474,0.964 -3.053,1.763 -4.737,2.397 -1.685,0.631 -3.511,1.113 -5.476,1.448 -1.965,0.332 -4.07,0.5 -6.316,0.5 -7.301,0 -12.617,-1.315 -15.95,-3.942 -3.335,-2.626 -5.001,-6.167 -5.001,-10.621 0,-2.993 0.753,-5.371 2.263,-7.132 1.509,-1.763 3.877,-3.175 7.107,-4.24 3.228,-1.064 7.405,-2.094 12.528,-3.09 5.404,-1.064 10.071,-2.311 14.003,-3.741 3.931,-1.43 6.965,-3.376 9.107,-5.836 2.141,-2.46 3.211,-5.784 3.211,-9.973 0,-3.125 -0.632,-5.868 -1.894,-8.229 -1.264,-2.361 -3.09,-4.305 -5.476,-5.835 -2.387,-1.53 -5.211,-2.693 -8.475,-3.49 -3.263,-0.798 -6.896,-1.197 -10.897,-1.197 -3.86,0 -7.546,0.399 -11.055,1.198 -3.51,0.799 -6.808,1.964 -9.896,3.496 -3.09,1.531 -5.966,3.497 -8.633,5.894 l 2.842,4.096 c 1.543,-1.599 3.28,-3.014 5.213,-4.246 1.929,-1.233 4.034,-2.282 6.316,-3.146 2.279,-0.866 4.719,-1.549 7.317,-2.049 2.596,-0.498 5.298,-0.749 8.107,-0.749 6.527,0 11.634,1.146 15.318,3.44 3.685,2.293 5.528,5.7 5.528,10.221 0,3.124 -0.842,5.651 -2.527,7.58 -1.684,1.929 -4.282,3.508 -7.791,4.739 -3.51,1.23 -7.896,2.377 -13.16,3.441 -5.264,1.064 -9.739,2.262 -13.424,3.592 -3.684,1.329 -6.459,3.125 -8.317,5.386 -1.86,2.261 -2.79,5.319 -2.79,9.178 0,4.254 1.105,7.863 3.316,10.822 2.211,2.959 5.318,5.203 9.318,6.733 4.001,1.53 8.597,2.294 13.792,2.294 3.227,0 6.228,-0.3 9.002,-0.899 2.771,-0.599 5.333,-1.515 7.685,-2.746 2.352,-1.234 4.544,-2.782 6.58,-4.646 z"
           id="path16" />
        <path
           transform="matrix(2.7777777,0,0,-2.7777777,0,4166.6667)"
           d="m 454.011,625.322 h -2 v 249.355 h 2 z"
           fill="#231f20"
           id="path31" />
      </g>
      <path
         d="M 96.325863,32.297634 93.35451,39.26573 h -0.916016 l 0.947917,-2.123697 -2.027995,-4.844399 h 0.929688 l 1.56315,3.773436 1.576823,-3.773436 z m 5.377597,2.547525 q 0,1.24414 -0.63802,1.964192 -0.63802,0.720052 -1.708979,0.720052 -1.080078,0 -1.718099,-0.720052 -0.633463,-0.720052 -0.633463,-1.964192 0,-1.24414 0.633463,-1.964192 0.638021,-0.724609 1.718099,-0.724609 1.070959,0 1.708979,0.724609 0.63802,0.720052 0.63802,1.964192 z m -0.88411,0 q 0,-0.988932 -0.38737,-1.467447 -0.38737,-0.483073 -1.075519,-0.483073 -0.697266,0 -1.084636,0.483073 -0.382812,0.478515 -0.382812,1.467447 0,0.957031 0.38737,1.453776 0.387369,0.492187 1.080078,0.492187 0.683589,0 1.070959,-0.48763 0.39193,-0.492187 0.39193,-1.458333 z m 6.43034,2.542968 h -0.85677 v -0.565104 q -0.43295,0.341797 -0.82943,0.524088 -0.39649,0.182292 -0.875,0.182292 -0.80208,0 -1.2487,-0.48763 -0.44661,-0.492187 -0.44661,-1.440104 v -3.304035 h 0.85677 v 2.898436 q 0,0.38737 0.0365,0.665365 0.0365,0.273437 0.15494,0.469401 0.12305,0.20052 0.31901,0.291666 0.19597,0.09115 0.56967,0.09115 0.33268,0 0.7246,-0.173177 0.39649,-0.173177 0.73829,-0.442057 v -3.80078 h 0.85677 z m 4.86263,-4.156249 h -0.0456 q -0.1914,-0.04557 -0.3737,-0.0638 -0.17773,-0.02279 -0.42382,-0.02279 -0.39649,0 -0.76563,0.177734 -0.36914,0.173177 -0.71094,0.451172 v 3.613931 h -0.85677 v -5.090493 h 0.85677 v 0.751953 q 0.51042,-0.410156 0.89779,-0.578776 0.39193,-0.173177 0.79753,-0.173177 0.2233,0 0.32356,0.01367 0.10026,0.0091 0.30079,0.04102 z m 8.34439,4.156249 h -0.85677 V 34.48969 q 0,-0.350911 -0.041,-0.656249 -0.041,-0.309896 -0.15039,-0.483073 -0.11394,-0.191406 -0.32813,-0.282552 -0.21419,-0.0957 -0.55599,-0.0957 -0.35091,0 -0.73372,0.173177 -0.38281,0.173177 -0.73373,0.442057 v 3.80078 h -0.85677 v -7.091143 h 0.85677 v 2.565754 q 0.40105,-0.332682 0.82943,-0.519531 0.42839,-0.186849 0.87956,-0.186849 0.82487,0 1.25781,0.496745 0.43294,0.496744 0.43294,1.430989 z m 5.98828,-2.542968 q 0,1.24414 -0.63802,1.964192 -0.63802,0.720052 -1.70898,0.720052 -1.08008,0 -1.7181,-0.720052 -0.63346,-0.720052 -0.63346,-1.964192 0,-1.24414 0.63346,-1.964192 0.63802,-0.724609 1.7181,-0.724609 1.07096,0 1.70898,0.724609 0.63802,0.720052 0.63802,1.964192 z m -0.88411,0 q 0,-0.988932 -0.38737,-1.467447 -0.38737,-0.483073 -1.07552,-0.483073 -0.69727,0 -1.08464,0.483073 -0.38281,0.478515 -0.38281,1.467447 0,0.957031 0.38737,1.453776 0.38737,0.492187 1.08008,0.492187 0.68359,0 1.07096,-0.48763 0.39193,-0.492187 0.39193,-1.458333 z m 9.63867,2.542968 h -0.85677 V 34.48969 q 0,-0.328124 -0.0319,-0.633463 -0.0273,-0.305338 -0.12305,-0.48763 -0.10482,-0.195963 -0.30078,-0.296224 -0.19596,-0.10026 -0.56511,-0.10026 -0.36002,0 -0.72005,0.182291 -0.36002,0.177735 -0.72005,0.455729 0.0137,0.104818 0.0228,0.246094 0.009,0.136719 0.009,0.273437 v 3.258463 h -0.85677 V 34.48969 q 0,-0.337239 -0.0319,-0.63802 -0.0273,-0.305339 -0.12305,-0.48763 -0.10481,-0.195964 -0.30078,-0.291667 -0.19596,-0.10026 -0.5651,-0.10026 -0.35091,0 -0.70638,0.173177 -0.35091,0.173177 -0.70182,0.442057 v 3.80078 h -0.85677 v -5.090493 h 0.85677 v 0.565104 q 0.40104,-0.332682 0.79752,-0.519531 0.40104,-0.186849 0.85221,-0.186849 0.51954,0 0.87956,0.21875 0.36458,0.21875 0.54232,0.606119 0.51953,-0.437499 0.94792,-0.628906 0.42838,-0.195963 0.91601,-0.195963 0.83854,0 1.23503,0.510416 0.40104,0.50586 0.40104,1.417318 z m 5.9108,-2.456379 h -3.75065 q 0,0.4694 0.14128,0.820312 0.14127,0.346354 0.38737,0.569661 0.23698,0.21875 0.56055,0.328125 0.32812,0.109375 0.72005,0.109375 0.51953,0 1.04362,-0.205078 0.52864,-0.209636 0.75195,-0.410156 h 0.0456 v 0.934244 q -0.43294,0.182292 -0.88411,0.305339 -0.45117,0.123046 -0.94792,0.123046 -1.26693,0 -1.97786,-0.683593 -0.71094,-0.688151 -0.71094,-1.95052 0,-1.248698 0.67904,-1.982421 0.68359,-0.733724 1.79557,-0.733724 1.02995,0 1.58594,0.601562 0.56054,0.601562 0.56054,1.708984 z m -0.83398,-0.65625 q -0.005,-0.674479 -0.3418,-1.04362 -0.33268,-0.36914 -1.01627,-0.36914 -0.68815,0 -1.09831,0.405599 -0.4056,0.405598 -0.46029,1.007161 z m 8.59049,-1.04362 h -0.0456 q -0.19141,-0.04557 -0.3737,-0.0638 -0.17773,-0.02279 -0.42383,-0.02279 -0.39648,0 -0.76562,0.177734 -0.36914,0.173177 -0.71094,0.451172 v 3.613931 h -0.85677 v -5.090493 h 0.85677 v 0.751953 q 0.51042,-0.410156 0.89779,-0.578776 0.39192,-0.173177 0.79752,-0.173177 0.22331,0 0.32357,0.01367 0.10026,0.0091 0.30078,0.04102 z m 5.06771,1.69987 h -3.75065 q 0,0.4694 0.14127,0.820312 0.14128,0.346354 0.38737,0.569661 0.23698,0.21875 0.56055,0.328125 0.32813,0.109375 0.72005,0.109375 0.51953,0 1.04362,-0.205078 0.52865,-0.209636 0.75195,-0.410156 h 0.0456 v 0.934244 q -0.43295,0.182292 -0.88412,0.305339 -0.45117,0.123046 -0.94791,0.123046 -1.26693,0 -1.97787,-0.683593 -0.71093,-0.688151 -0.71093,-1.95052 0,-1.248698 0.67903,-1.982421 0.6836,-0.733724 1.79557,-0.733724 1.02995,0 1.58594,0.601562 0.56055,0.601562 0.56055,1.708984 z m -0.83399,-0.65625 q -0.005,-0.674479 -0.34179,-1.04362 -0.33269,-0.36914 -1.01628,-0.36914 -0.68815,0 -1.09831,0.405599 -0.40559,0.405598 -0.46028,1.007161 z m 3.05339,-2.830077 h -0.96615 v -0.888672 h 0.96615 z m -0.0547,5.942706 h -0.85677 v -5.090493 h 0.85677 z m 9.12369,0 H 164.3662 V 34.48969 q 0,-0.328124 -0.0319,-0.633463 -0.0273,-0.305338 -0.12304,-0.48763 -0.10482,-0.195963 -0.30079,-0.296224 -0.19596,-0.10026 -0.5651,-0.10026 -0.36003,0 -0.72005,0.182291 -0.36003,0.177735 -0.72005,0.455729 0.0137,0.104818 0.0228,0.246094 0.009,0.136719 0.009,0.273437 v 3.258463 H 161.0804 V 34.48969 q 0,-0.337239 -0.0319,-0.63802 -0.0273,-0.305339 -0.12305,-0.48763 -0.10482,-0.195964 -0.30078,-0.291667 -0.19597,-0.10026 -0.56511,-0.10026 -0.35091,0 -0.70638,0.173177 -0.35091,0.173177 -0.70182,0.442057 v 3.80078 h -0.85677 v -5.090493 h 0.85677 v 0.565104 q 0.40104,-0.332682 0.79753,-0.519531 0.40104,-0.186849 0.85221,-0.186849 0.51953,0 0.87956,0.21875 0.36458,0.21875 0.54232,0.606119 0.51953,-0.437499 0.94791,-0.628906 0.42839,-0.195963 0.91602,-0.195963 0.83854,0 1.23502,0.510416 0.40104,0.50586 0.40104,1.417318 z m 5.60547,0 h -0.85221 v -0.542318 q -0.11393,0.07747 -0.30989,0.21875 -0.19141,0.136719 -0.3737,0.21875 -0.2142,0.104818 -0.49219,0.173177 -0.27799,0.07292 -0.65169,0.07292 -0.68815,0 -1.16667,-0.455729 -0.47851,-0.455729 -0.47851,-1.162109 0,-0.578776 0.24609,-0.934245 0.25065,-0.360025 0.71094,-0.565104 0.46484,-0.205078 1.11653,-0.277994 0.6517,-0.07292 1.39909,-0.109375 v -0.132162 q 0,-0.291666 -0.10482,-0.483072 -0.10026,-0.191407 -0.29166,-0.300781 -0.1823,-0.104818 -0.4375,-0.141276 -0.25521,-0.03646 -0.53321,-0.03646 -0.33724,0 -0.75195,0.09115 -0.41471,0.08659 -0.85677,0.255208 h -0.0456 v -0.870442 q 0.25065,-0.06836 0.72461,-0.150391 0.47395,-0.08203 0.93424,-0.08203 0.53776,0 0.93425,0.09115 0.40104,0.08659 0.6927,0.300781 0.28711,0.209635 0.4375,0.542318 0.15039,0.332682 0.15039,0.824869 z m -0.85221,-1.253255 v -1.417317 q -0.39193,0.02279 -0.92513,0.06836 -0.52864,0.04557 -0.83854,0.132162 -0.36914,0.104817 -0.59701,0.328125 -0.22786,0.21875 -0.22786,0.606119 0,0.4375 0.26432,0.660807 0.26433,0.21875 0.80664,0.21875 0.45117,0 0.82487,-0.173177 0.3737,-0.177734 0.69271,-0.423829 z m 6.63085,0.674479 q 0,1.29427 -0.58789,1.90039 -0.58789,0.60612 -1.80924,0.60612 -0.4056,0 -0.79297,-0.05924 -0.38281,-0.05469 -0.75651,-0.159505 v -0.875 h 0.0456 q 0.20964,0.08203 0.66537,0.200521 0.45573,0.123047 0.91145,0.123047 0.4375,0 0.72461,-0.104818 0.28711,-0.104818 0.44662,-0.291667 0.1595,-0.177734 0.22786,-0.428385 0.0684,-0.250651 0.0684,-0.560547 v -0.464843 q -0.38737,0.309896 -0.74284,0.464843 -0.35091,0.150391 -0.89778,0.150391 -0.91146,0 -1.44922,-0.65625 -0.5332,-0.660807 -0.5332,-1.859374 0,-0.65625 0.18229,-1.130208 0.18685,-0.478516 0.50586,-0.82487 0.29622,-0.323567 0.72005,-0.501302 0.42383,-0.182291 0.8431,-0.182291 0.44205,0 0.73828,0.09115 0.30078,0.08659 0.63346,0.26888 l 0.0547,-0.21875 h 0.80208 z m -0.85677,-0.820312 v -2.77539 q -0.3418,-0.154948 -0.63802,-0.21875 -0.29167,-0.06836 -0.58333,-0.06836 -0.70638,0 -1.11198,0.473958 -0.4056,0.473958 -0.4056,1.376302 0,0.85677 0.30078,1.298827 0.30078,0.442058 0.99805,0.442058 0.3737,0 0.74739,-0.141276 0.37826,-0.145834 0.69271,-0.387369 z m 3.46355,-4.543618 h -0.96615 v -0.888672 h 0.96615 z m -0.0547,5.942706 h -0.85677 v -5.090493 h 0.85677 z m 5.95182,0 H 184.2542 V 34.48969 q 0,-0.350911 -0.041,-0.656249 -0.041,-0.309896 -0.15039,-0.483073 -0.11393,-0.191406 -0.32812,-0.282552 -0.21419,-0.0957 -0.55599,-0.0957 -0.35091,0 -0.73372,0.173177 -0.38282,0.173177 -0.73373,0.442057 v 3.80078 h -0.85677 v -5.090493 h 0.85677 v 0.565104 q 0.40104,-0.332682 0.82943,-0.519531 0.42838,-0.186849 0.87956,-0.186849 0.82487,0 1.25781,0.496745 0.43294,0.496744 0.43294,1.430989 z m 5.9108,-2.456379 h -3.75065 q 0,0.4694 0.14128,0.820312 0.14127,0.346354 0.38737,0.569661 0.23698,0.21875 0.56054,0.328125 0.32813,0.109375 0.72006,0.109375 0.51953,0 1.04361,-0.205078 0.52865,-0.209636 0.75196,-0.410156 h 0.0456 v 0.934244 q -0.43294,0.182292 -0.88411,0.305339 -0.45118,0.123046 -0.94792,0.123046 -1.26693,0 -1.97786,-0.683593 -0.71094,-0.688151 -0.71094,-1.95052 0,-1.248698 0.67903,-1.982421 0.6836,-0.733724 1.79558,-0.733724 1.02994,0 1.58593,0.601562 0.56055,0.601562 0.56055,1.708984 z m -0.83398,-0.65625 q -0.005,-0.674479 -0.3418,-1.04362 -0.33268,-0.36914 -1.01628,-0.36914 -0.68815,0 -1.0983,0.405599 -0.4056,0.405598 -0.46029,1.007161 z m 6.26172,3.112629 h -0.85677 v -0.533203 q -0.36914,0.31901 -0.77018,0.496745 -0.40105,0.177734 -0.87045,0.177734 -0.91146,0 -1.44922,-0.701823 -0.5332,-0.701822 -0.5332,-1.945963 0,-0.647135 0.18229,-1.152994 0.18685,-0.505859 0.5013,-0.861328 0.3099,-0.346354 0.72006,-0.528646 0.41471,-0.182291 0.85677,-0.182291 0.40104,0 0.71093,0.08659 0.3099,0.08203 0.6517,0.259766 v -2.205728 h 0.85677 z m -0.85677,-1.253255 v -2.921223 q -0.34636,-0.154948 -0.61979,-0.214192 -0.27344,-0.05924 -0.59701,-0.05924 -0.72005,0 -1.12109,0.501302 -0.40104,0.501302 -0.40104,1.421874 0,0.906901 0.30989,1.380859 0.3099,0.469401 0.99349,0.469401 0.36458,0 0.73828,-0.159505 0.3737,-0.164063 0.69727,-0.419271 z"
         id="text32"
         style="font-size:9.33333px;text-align:center;white-space:pre;fill:#1a1a1a"
         transform="matrix(13.544581,0,0,13.544581,546.43301,1756.6859)"
         aria-label="your home reimagined" />
    </g>
  </g>
</svg>
