<?xml version="1.0" encoding="UTF-8" standalone="no"?>
<svg
   version="1.1"
   width="170.74939pt"
   height="38.354004pt"
   viewBox="0 0 170.7494 38.354006"
   id="svg32"
   xmlns="http://www.w3.org/2000/svg"
   xmlns:svg="http://www.w3.org/2000/svg">
  <defs
     id="defs32" />
  <g
     enable-background="new"
     id="g32"
     transform="matrix(0.0553727,0,0,0.0553727,-29.985079,-96.182872)">
    <g
       id="Layer-1"
       data-name="Layer 1">
      <path
         transform="matrix(2.7777777,0,0,-2.7777777,1146.4911,2261.168)"
         d="m 0,0 h -9.18 l 0.01,76.67 -80.235,55.301 v 10.614 L 0.042,80.56 0.084,80.621 Z m -11.475,0 h -9.158 l 10e-4,71.645 -68.773,47.865 v 9.681 l 77.941,-53.677 z m -0.001,-8.257 -9.157,-0.003 v 5.965 h 9.158 z M -22.927,0 h -169.636 v 80.941 l 9.167,6.563 V 7.627 h 10e-4 V 7.558 h 36.681 v 2.476 h -0.001 v 103.727 l 9.168,6.562 V 48.925 48.908 h 25.217 v 0.017 h 0.001 v 83.745 l 9.168,-6.381 V 10.034 7.558 h 68.773 2.294 v 2.476 66.791 l 9.167,-6.38 z m 0,-8.261 -169.636,-0.055 v 6.021 h 169.636 z m 0,-8.371 h -169.636 v 6.022 l 169.636,0.055 z m -158.174,105.778 9.168,6.563 V 10.034 h -9.168 z m 11.462,8.205 9.168,6.563 v -93.88 h -9.168 z m 11.462,8.205 9.168,6.563 V 10.034 h -9.168 z m 22.924,16.41 9.168,6.563 V 51.385 h -9.168 z m 34.386,2.726 9.168,-6.38 V 10.034 h -9.168 z m 0,12.393 9.168,-6.313 v -9.665 l -9.168,6.38 z m 22.925,-28.349 9.184,-6.392 h -0.017 v -92.31 h -9.167 z m 11.461,-7.977 9.168,-6.381 V 10.034 h -9.168 z m 11.463,-7.978 9.201,-6.405 h -0.034 V 10.034 h -9.167 z m 11.461,-7.978 9.169,-6.381 V 10.034 h -9.169 z m -45.848,31.911 9.168,-6.381 V 10.034 h -9.168 z M -194.857,0 h -9.168 v 72.736 l 9.168,6.563 z m 0,-8.316 h -9.16699 v 6.021 h 9.16699 z M -206.319,0 h -9.168 v 64.531 l 9.168,6.563 z M 0.087,83.32 -91.699,146.968 v -2.254 -0.538 -10.624 l -11.462,7.9 v -2.787 -9.581 l -11.463,7.978 v -2.795 -82.882 h -9.167 v 78.786 1.35 1.696 l -94.001,-67.29 0.035,-0.048 h -0.024 V 0 -0.627 -2.295 h 11.462 v -8.237 h 0.094 v -0.078 h 11.368 v -8.177 h 0.188 v -0.139 h 171.742 2.294 v 8.372 l 11.451,0.003 0.001,8.256 h 9.179 V -2.302 H 2.292 V -2.295 0 81.82 Z"
         id="path1" />
      <path
         transform="matrix(2.7777777,0,0,-2.7777777,1385.8711,2089.122)"
         d="M 0,0 V 70.922 H 48.641 V 66.327 H 5.369 V 38.159 H 42.113 V 33.763 H 5.369 V 0 Z"
         id="path2" />
      <clipPath
         id="cp0">
        <path
           transform="matrix(2.7777777,0,0,-2.7777777,0,4166.6667)"
           d="M 0,1500 H 1500 V 0 H 0 Z"
           id="path3" />
      </clipPath>
      <g
         clip-path="url(#cp0)"
         id="g31">
        <path
           transform="matrix(2.7777777,0,0,-2.7777777,1556.9539,2001.7172)"
           d="m 0,0 h 26.216 c 3.227,0 6.034,0.832 8.422,2.497 2.385,1.664 4.227,3.828 5.528,6.493 1.297,2.663 1.947,5.494 1.947,8.49 0,3.063 -0.755,5.91 -2.263,8.541 -1.511,2.63 -3.511,4.761 -6.002,6.393 -2.492,1.631 -5.282,2.447 -8.369,2.447 H 0 Z m -5.37,-31.466 v 70.922 h 31.059 c 3.228,0 6.159,-0.634 8.791,-1.897 2.632,-1.266 4.913,-2.948 6.844,-5.045 1.929,-2.098 3.438,-4.445 4.527,-7.042 1.087,-2.598 1.632,-5.262 1.632,-7.992 0,-3.53 -0.737,-6.826 -2.212,-9.888 C 43.798,4.527 41.745,1.963 39.112,-0.1 36.48,-2.165 33.41,-3.431 29.9,-3.896 l 18.636,-27.57 H 42.324 L 24.215,-4.695 H 0 v -26.771 z"
           id="path4" />
        <path
           transform="matrix(2.7777777,0,0,-2.7777777,1852.619,2076.3592)"
           d="M 0,0 V -4.595 H -49.799 V 66.327 H -0.948 V 61.732 H -44.43 V 33.863 H -6.422 V 29.468 H -44.43 V 0 Z"
           id="path5" />
        <path
           transform="matrix(2.7777777,0,0,-2.7777777,1994.1691,1924.8576)"
           d="m 0,0 c -1.194,1.264 -2.527,2.38 -4.001,3.347 -1.474,0.964 -3.053,1.763 -4.737,2.397 -1.685,0.631 -3.511,1.113 -5.475,1.448 -1.966,0.332 -4.072,0.5 -6.317,0.5 -7.301,0 -12.617,-1.315 -15.95,-3.942 -3.335,-2.626 -5.002,-6.167 -5.002,-10.621 0,-2.993 0.754,-5.371 2.264,-7.132 1.509,-1.763 3.877,-3.175 7.107,-4.24 3.228,-1.064 7.404,-2.094 12.528,-3.09 5.404,-1.064 10.071,-2.311 14.003,-3.741 3.93,-1.43 6.965,-3.376 9.107,-5.836 2.14,-2.46 3.211,-5.784 3.211,-9.973 0,-3.125 -0.632,-5.868 -1.895,-8.229 -1.263,-2.361 -3.089,-4.305 -5.475,-5.835 -2.387,-1.53 -5.211,-2.693 -8.475,-3.49 -3.264,-0.798 -6.896,-1.197 -10.897,-1.197 -3.861,0 -7.546,0.399 -11.055,1.198 -3.51,0.799 -6.808,1.964 -9.896,3.496 -3.09,1.531 -5.966,3.497 -8.633,5.894 l 2.842,4.096 c 1.543,-1.599 3.28,-3.014 5.212,-4.246 1.93,-1.233 4.035,-2.282 6.317,-3.146 2.279,-0.866 4.719,-1.549 7.317,-2.049 2.596,-0.498 5.298,-0.749 8.107,-0.749 6.527,0 11.633,1.146 15.319,3.44 3.684,2.293 5.527,5.7 5.527,10.221 0,3.124 -0.842,5.651 -2.527,7.58 -1.684,1.929 -4.282,3.508 -7.791,4.739 -3.511,1.23 -7.896,2.377 -13.16,3.441 -5.264,1.064 -9.74,2.262 -13.424,3.592 -3.685,1.329 -6.459,3.125 -8.317,5.386 -1.86,2.261 -2.79,5.319 -2.79,9.178 0,4.254 1.105,7.863 3.316,10.822 2.211,2.959 5.317,5.203 9.318,6.733 4.001,1.53 8.597,2.294 13.792,2.294 3.227,0 6.228,-0.3 9.001,-0.899 2.772,-0.599 5.334,-1.515 7.686,-2.746 2.351,-1.234 4.544,-2.782 6.58,-4.646 z"
           id="path6" />
        <path
           transform="matrix(2.7777777,0,0,-2.7777777,2193.6197,1892.117)"
           d="m 0,0 v -70.922 h -5.369 v 33.963 h -47.167 v -33.963 h -5.37 V 0 h 5.37 V -32.364 H -5.369 V 0 Z"
           id="path7" />
        <path
           transform="matrix(2.7777777,0,0,-2.7777777,0,4166.6667)"
           d="m 829.918,818.838 h 5.36907 V 747.916 H 829.918 Z"
           id="path8" />
        <path
           transform="matrix(2.7777777,0,0,-2.7777777,2372.008,1918.4761)"
           d="M 0,0 V -61.433 H -5.369 V 9.489 h 4.422 L 51.168,-52.942 V 9.489 h 5.369 v -70.922 h -5.264 z"
           id="path9" />
        <path
           transform="matrix(2.7777777,0,0,-2.7777777,2710.666,1904.8799)"
           d="m 0,0 h -27.373 v -66.327 h -5.37 V 0 H -60.116 V 4.595 H 0 Z"
           id="path10" />
        <path
           transform="matrix(2.7777777,0,0,-2.7777777,2863.6148,2076.3592)"
           d="M 0,0 V -4.595 H -49.799 V 66.327 H -0.947 V 61.732 H -44.43 V 33.863 H -6.422 V 29.468 H -44.43 V 0 Z"
           id="path11" />
        <path
           transform="matrix(2.7777777,0,0,-2.7777777,2901.6329,2001.7172)"
           d="m 0,0 h 26.217 c 3.226,0 6.034,0.832 8.422,2.497 2.384,1.664 4.227,3.828 5.527,6.493 1.298,2.663 1.948,5.494 1.948,8.49 0,3.063 -0.756,5.91 -2.264,8.541 -1.51,2.63 -3.51,4.761 -6.001,6.393 -2.492,1.631 -5.282,2.447 -8.37,2.447 H 0 Z m -5.369,-31.466 v 70.922 h 31.058 c 3.228,0 6.16,-0.634 8.791,-1.897 2.633,-1.266 4.913,-2.948 6.844,-5.045 1.93,-2.098 3.438,-4.445 4.528,-7.042 1.086,-2.598 1.631,-5.262 1.631,-7.992 0,-3.53 -0.737,-6.826 -2.211,-9.888 C 43.798,4.527 41.745,1.963 39.113,-0.1 36.48,-2.165 33.41,-3.431 29.9,-3.896 l 18.636,-27.57 H 42.324 L 24.216,-4.695 H 0 v -26.771 z"
           id="path12" />
        <path
           transform="matrix(2.7777777,0,0,-2.7777777,0,4166.6667)"
           d="m 1101.229,818.838 h 5.369 v -70.922 h -5.369 z"
           id="path13" />
        <path
           transform="matrix(2.7777777,0,0,-2.7777777,3111.3199,1990.6183)"
           d="m 0,0 c 0,-4.063 0.736,-7.959 2.211,-11.687 1.474,-3.73 3.526,-7.06 6.159,-9.99 2.632,-2.93 5.754,-5.26 9.37,-6.991 3.614,-1.733 7.597,-2.598 11.949,-2.598 4.422,0 8.457,0.899 12.108,2.697 3.649,1.798 6.773,4.195 9.371,7.192 2.596,2.997 4.58,6.343 5.948,10.04 1.368,3.695 2.053,7.474 2.053,11.337 0,4.061 -0.721,7.957 -2.158,11.688 -1.44,3.728 -3.492,7.057 -6.159,9.988 -2.668,2.929 -5.809,5.26 -9.423,6.992 -3.616,1.731 -7.529,2.597 -11.74,2.597 -4.492,0 -8.564,-0.899 -12.211,-2.697 C 13.826,26.77 10.721,24.373 8.16,21.376 5.597,18.38 3.596,15.033 2.158,11.337 0.719,7.641 0,3.861 0,0 m 29.585,-35.96 c -5.195,0 -9.934,1.014 -14.214,3.046 -4.282,2.031 -7.967,4.745 -11.055,8.141 -3.088,3.396 -5.474,7.242 -7.159,11.537 C -4.527,-8.94 -5.37,-4.53 -5.37,0 c 0,4.728 0.878,9.24 2.633,13.535 1.754,4.296 4.227,8.124 7.422,11.487 3.193,3.363 6.913,6.027 11.16,7.992 4.246,1.963 8.86,2.946 13.844,2.946 5.265,0 10.019,-1.033 14.266,-3.096 4.247,-2.066 7.913,-4.829 11.003,-8.291 3.087,-3.464 5.474,-7.326 7.159,-11.587 C 63.801,8.723 64.644,4.395 64.644,0 c 0,-4.795 -0.879,-9.34 -2.632,-13.635 -1.755,-4.296 -4.23,-8.126 -7.423,-11.488 -3.194,-3.363 -6.914,-6.01 -11.16,-7.941 -4.247,-1.932 -8.862,-2.896 -13.844,-2.896"
           id="path14" />
        <path
           transform="matrix(2.7777777,0,0,-2.7777777,3328.3175,2001.7172)"
           d="m 0,0 h 26.216 c 3.226,0 6.035,0.832 8.422,2.497 2.385,1.664 4.227,3.828 5.527,6.493 1.298,2.663 1.948,5.494 1.948,8.49 0,3.063 -0.756,5.91 -2.263,8.541 -1.511,2.63 -3.511,4.761 -6.002,6.393 -2.492,1.631 -5.282,2.447 -8.369,2.447 H 0 Z m -5.369,-31.466 v 70.922 h 31.057 c 3.229,0 6.16,-0.634 8.792,-1.897 2.632,-1.266 4.913,-2.948 6.843,-5.045 1.93,-2.098 3.439,-4.445 4.528,-7.042 1.087,-2.598 1.631,-5.262 1.631,-7.992 0,-3.53 -0.737,-6.826 -2.211,-9.888 C 43.798,4.527 41.744,1.963 39.112,-0.1 36.48,-2.165 33.409,-3.431 29.9,-3.896 l 18.635,-27.57 H 42.323 L 24.215,-4.695 H 0 v -26.771 z"
           id="path15" />
        <path
           transform="matrix(2.7777777,0,0,-2.7777777,3606.4344,1924.8576)"
           d="m 0,0 c -1.194,1.264 -2.527,2.38 -4.001,3.347 -1.474,0.964 -3.053,1.763 -4.737,2.397 -1.685,0.631 -3.511,1.113 -5.476,1.448 -1.965,0.332 -4.07,0.5 -6.316,0.5 -7.301,0 -12.617,-1.315 -15.95,-3.942 -3.335,-2.626 -5.001,-6.167 -5.001,-10.621 0,-2.993 0.753,-5.371 2.263,-7.132 1.509,-1.763 3.877,-3.175 7.107,-4.24 3.228,-1.064 7.405,-2.094 12.528,-3.09 5.404,-1.064 10.071,-2.311 14.003,-3.741 3.931,-1.43 6.965,-3.376 9.107,-5.836 2.141,-2.46 3.211,-5.784 3.211,-9.973 0,-3.125 -0.632,-5.868 -1.894,-8.229 -1.264,-2.361 -3.09,-4.305 -5.476,-5.835 -2.387,-1.53 -5.211,-2.693 -8.475,-3.49 -3.263,-0.798 -6.896,-1.197 -10.897,-1.197 -3.86,0 -7.546,0.399 -11.055,1.198 -3.51,0.799 -6.808,1.964 -9.896,3.496 -3.09,1.531 -5.966,3.497 -8.633,5.894 l 2.842,4.096 c 1.543,-1.599 3.28,-3.014 5.213,-4.246 1.929,-1.233 4.034,-2.282 6.316,-3.146 2.279,-0.866 4.719,-1.549 7.317,-2.049 2.596,-0.498 5.298,-0.749 8.107,-0.749 6.527,0 11.634,1.146 15.318,3.44 3.685,2.293 5.528,5.7 5.528,10.221 0,3.124 -0.842,5.651 -2.527,7.58 -1.684,1.929 -4.282,3.508 -7.791,4.739 -3.51,1.23 -7.896,2.377 -13.16,3.441 -5.264,1.064 -9.739,2.262 -13.424,3.592 -3.684,1.329 -6.459,3.125 -8.317,5.386 -1.86,2.261 -2.79,5.319 -2.79,9.178 0,4.254 1.105,7.863 3.316,10.822 2.211,2.959 5.318,5.203 9.318,6.733 4.001,1.53 8.597,2.294 13.792,2.294 3.227,0 6.228,-0.3 9.002,-0.899 2.771,-0.599 5.333,-1.515 7.685,-2.746 2.352,-1.234 4.544,-2.782 6.58,-4.646 z"
           id="path16" />
        <path
           transform="matrix(2.7777777,0,0,-2.7777777,1410.0869,2245.4156)"
           d="m 0,0 c -2.133,0 -4.109,0.36 -5.933,1.082 -1.822,0.723 -3.421,1.823 -4.796,3.302 l 1.186,1.805 c 1.478,-1.411 2.974,-2.433 4.488,-3.069 1.513,-0.637 3.163,-0.954 4.951,-0.954 2.304,0 4.17,0.479 5.597,1.438 1.427,0.957 2.141,2.292 2.141,4.001 0,1.166 -0.335,2.064 -1.006,2.698 -0.67,0.634 -1.633,1.147 -2.889,1.542 -1.256,0.394 -2.777,0.814 -4.565,1.259 -1.822,0.48 -3.361,0.976 -4.616,1.49 -1.256,0.514 -2.192,1.182 -2.811,2.005 -0.62,0.821 -0.929,1.935 -0.929,3.34 0,1.748 0.438,3.195 1.315,4.342 0.878,1.149 2.064,2.004 3.559,2.57 1.497,0.565 3.155,0.847 4.978,0.847 2.098,0 3.928,-0.344 5.494,-1.031 1.565,-0.688 2.759,-1.599 3.585,-2.733 L 8.355,22.283 c -0.859,1.1 -1.977,1.916 -3.352,2.449 -1.376,0.535 -2.888,0.8 -4.539,0.8 -1.238,0 -2.407,-0.172 -3.508,-0.513 -1.101,-0.343 -1.985,-0.9 -2.656,-1.669 -0.67,-0.771 -1.006,-1.807 -1.006,-3.108 0,-1.029 0.249,-1.835 0.748,-2.416 0.498,-0.582 1.246,-1.054 2.244,-1.413 C -2.717,16.054 -1.479,15.668 0,15.258 2.097,14.744 3.902,14.213 5.416,13.665 6.929,13.117 8.098,12.406 8.923,11.533 9.749,10.66 10.162,9.436 10.162,7.86 10.162,5.428 9.233,3.509 7.375,2.105 5.519,0.701 3.06,0 0,0"
           id="path17" />
        <path
           transform="matrix(2.7777777,0,0,-2.7777777,1488.4602,2240.9749)"
           d="m 0,0 c -0.173,-0.069 -0.517,-0.241 -1.032,-0.517 -0.516,-0.274 -1.17,-0.524 -1.96,-0.747 -0.792,-0.222 -1.669,-0.335 -2.631,-0.335 -0.928,0 -1.797,0.182 -2.605,0.544 -0.808,0.364 -1.453,0.909 -1.934,1.635 -0.482,0.728 -0.723,1.609 -0.723,2.649 v 20.344 h -3.765 v 2.114 h 3.765 v 9.182 h 2.58 v -9.182 h 6.242 V 23.573 H -8.305 V 3.837 c 0.069,-1.004 0.43,-1.757 1.083,-2.259 0.653,-0.502 1.41,-0.753 2.27,-0.753 1.065,0 1.994,0.181 2.785,0.542 0.791,0.361 1.255,0.593 1.393,0.696 z"
           id="path18" />
        <path
           transform="matrix(2.7777777,0,0,-2.7777777,1546.2022,2228.7)"
           d="m 0,0 c 0.343,0.445 0.602,0.873 0.774,1.284 0.172,0.411 0.257,0.787 0.257,1.131 v 4.417 c -1.237,0.48 -2.527,0.838 -3.868,1.079 -1.341,0.239 -2.717,0.36 -4.126,0.36 -2.683,0 -4.858,-0.532 -6.525,-1.593 -1.669,-1.062 -2.503,-2.499 -2.503,-4.315 0,-1.13 0.292,-2.175 0.878,-3.134 0.584,-0.958 1.4,-1.729 2.45,-2.311 1.048,-0.582 2.261,-0.872 3.636,-0.872 1.925,0 3.705,0.367 5.339,1.103 C -2.055,-2.114 -0.825,-1.164 0,0 m -18.466,2.209 c 0,1.61 0.481,3.008 1.444,4.19 0.962,1.183 2.287,2.108 3.972,2.777 1.684,0.669 3.628,1.003 5.828,1.003 1.376,0 2.803,-0.121 4.282,-0.362 1.478,-0.24 2.802,-0.567 3.971,-0.98 v 2.521 c 0,2.462 -0.713,4.428 -2.14,5.899 -1.428,1.471 -3.396,2.207 -5.906,2.207 -1.341,0 -2.734,-0.277 -4.178,-0.825 -1.445,-0.552 -2.923,-1.342 -4.436,-2.373 l -1.083,1.857 c 1.754,1.168 3.446,2.054 5.08,2.655 1.633,0.602 3.258,0.903 4.875,0.903 3.198,0 5.726,-0.942 7.582,-2.826 1.857,-1.883 2.786,-4.451 2.786,-7.704 V -2.104 c 0,-0.411 0.094,-0.718 0.284,-0.924 0.188,-0.205 0.472,-0.326 0.851,-0.36 V -5.502 C 4.436,-5.536 4.178,-5.554 3.972,-5.554 H 3.456 c -0.654,0.103 -1.161,0.378 -1.521,0.825 -0.361,0.448 -0.56,0.947 -0.594,1.497 v 2.114 c -1.237,-1.548 -2.829,-2.751 -4.771,-3.611 -1.943,-0.859 -3.981,-1.289 -6.112,-1.289 -1.686,0 -3.208,0.36 -4.565,1.079 -1.359,0.72 -2.425,1.706 -3.199,2.958 -0.773,1.25 -1.16,2.647 -1.16,4.19"
           id="path19" />
        <path
           transform="matrix(2.7777777,0,0,-2.7777777,1609.8171,2239.2579)"
           d="m 0,0 c 1.135,0 2.235,0.207 3.302,0.619 1.065,0.413 2.045,0.972 2.94,1.678 0.893,0.704 1.633,1.486 2.217,2.347 0.585,0.858 0.929,1.718 1.033,2.579 v 8.819 c -0.516,1.376 -1.299,2.605 -2.348,3.688 -1.049,1.084 -2.226,1.926 -3.533,2.529 -1.307,0.6 -2.649,0.902 -4.023,0.902 -1.617,0 -3.061,-0.345 -4.333,-1.031 -1.273,-0.689 -2.347,-1.592 -3.224,-2.709 -0.877,-1.117 -1.547,-2.372 -2.011,-3.765 -0.465,-1.393 -0.697,-2.777 -0.697,-4.153 0,-1.547 0.275,-3.009 0.825,-4.384 0.55,-1.376 1.316,-2.605 2.296,-3.687 0.98,-1.084 2.115,-1.927 3.404,-2.529 C -2.862,0.301 -1.479,0 0,0 m -0.618,-2.217 c -1.824,0 -3.517,0.378 -5.082,1.135 -1.564,0.755 -2.906,1.796 -4.023,3.12 -1.117,1.323 -1.995,2.803 -2.631,4.436 -0.636,1.632 -0.954,3.328 -0.954,5.082 0,1.822 0.301,3.576 0.903,5.26 0.602,1.685 1.461,3.173 2.579,4.462 1.118,1.29 2.432,2.313 3.946,3.07 1.512,0.756 3.198,1.133 5.055,1.133 2.339,0 4.375,-0.601 6.113,-1.804 1.736,-1.204 3.206,-2.682 4.41,-4.436 v 5.828 h 2.373 v -27.3 c 0,-2.404 -0.586,-4.43 -1.754,-6.08 -1.17,-1.648 -2.717,-2.875 -4.643,-3.682 -1.926,-0.807 -4.006,-1.211 -6.241,-1.211 -3.129,0 -5.615,0.567 -7.454,1.702 -1.839,1.135 -3.327,2.631 -4.462,4.487 l 1.754,1.188 c 1.066,-1.788 2.51,-3.113 4.333,-3.973 1.822,-0.858 3.766,-1.289 5.829,-1.289 1.822,0 3.498,0.331 5.029,0.993 1.53,0.663 2.751,1.649 3.662,2.959 0.911,1.309 1.368,2.914 1.368,4.818 V 3.56 C 8.425,1.807 6.972,0.404 5.133,-0.644 3.293,-1.693 1.375,-2.217 -0.618,-2.217"
           id="path20" />
        <path
           transform="matrix(2.7777777,0,0,-2.7777777,0,4166.6667)"
           d="m 599.651,718.988 h 2.579 v -26.82202 h -2.579 z m 0,10.832 h 2.579 v -4.745 h -2.579 z"
           id="path21" />
        <path
           transform="matrix(2.7777777,0,0,-2.7777777,1756.2499,2243.9832)"
           d="m 0,0 h -2.579 v 14.896 c 0,3.425 -0.49,5.933 -1.47,7.526 -0.98,1.593 -2.537,2.389 -4.668,2.389 -1.514,0 -3.001,-0.36 -4.462,-1.079 -1.462,-0.718 -2.734,-1.702 -3.817,-2.952 -1.084,-1.249 -1.866,-2.66 -2.347,-4.234 V 0 h -2.579 v 26.771 h 2.424 v -6.422 c 0.722,1.37 1.685,2.56 2.889,3.571 1.203,1.011 2.544,1.808 4.023,2.39 1.478,0.582 3.009,0.873 4.591,0.873 1.478,0 2.724,-0.266 3.74,-0.795 1.013,-0.533 1.838,-1.294 2.476,-2.287 0.635,-0.995 1.091,-2.227 1.366,-3.701 C -0.138,18.928 0,17.248 0,15.365 Z"
           id="path22" />
        <path
           transform="matrix(2.7777777,0,0,-2.7777777,1809.6909,2239.2579)"
           d="m 0,0 c 1.135,0 2.235,0.207 3.302,0.619 1.065,0.413 2.045,0.972 2.94,1.678 0.893,0.704 1.633,1.486 2.217,2.347 0.585,0.858 0.929,1.718 1.032,2.579 v 8.819 c -0.515,1.376 -1.298,2.605 -2.347,3.688 -1.049,1.084 -2.226,1.926 -3.533,2.529 -1.307,0.6 -2.649,0.902 -4.023,0.902 -1.617,0 -3.061,-0.345 -4.333,-1.031 -1.273,-0.689 -2.347,-1.592 -3.224,-2.709 -0.877,-1.117 -1.547,-2.372 -2.011,-3.765 -0.465,-1.393 -0.697,-2.777 -0.697,-4.153 0,-1.547 0.275,-3.009 0.825,-4.384 0.55,-1.376 1.316,-2.605 2.296,-3.687 0.98,-1.084 2.115,-1.927 3.404,-2.529 C -2.862,0.301 -1.479,0 0,0 m -0.618,-2.217 c -1.824,0 -3.517,0.378 -5.082,1.135 -1.564,0.755 -2.906,1.796 -4.023,3.12 -1.117,1.323 -1.995,2.803 -2.631,4.436 -0.636,1.632 -0.954,3.328 -0.954,5.082 0,1.822 0.301,3.576 0.903,5.26 0.601,1.685 1.461,3.173 2.579,4.462 1.118,1.29 2.432,2.313 3.946,3.07 1.512,0.756 3.198,1.133 5.055,1.133 2.338,0 4.375,-0.601 6.113,-1.804 1.736,-1.204 3.206,-2.682 4.41,-4.436 v 5.828 h 2.373 v -27.3 c 0,-2.404 -0.586,-4.43 -1.754,-6.08 -1.17,-1.648 -2.717,-2.875 -4.643,-3.682 -1.926,-0.807 -4.006,-1.211 -6.241,-1.211 -3.129,0 -5.615,0.567 -7.454,1.702 -1.839,1.135 -3.327,2.631 -4.462,4.487 l 1.754,1.188 c 1.066,-1.788 2.51,-3.113 4.333,-3.973 1.822,-0.858 3.766,-1.289 5.829,-1.289 1.822,0 3.498,0.331 5.029,0.993 1.53,0.663 2.751,1.649 3.662,2.959 0.911,1.309 1.367,2.914 1.367,4.818 V 3.56 C 8.425,1.807 6.972,0.404 5.133,-0.644 3.293,-1.693 1.375,-2.217 -0.618,-2.217"
           id="path23" />
        <path
           transform="matrix(2.7777777,0,0,-2.7777777,1974.4669,2243.9832)"
           d="m 0,0 -18.57,19.508 c -1.479,1.562 -2.665,2.895 -3.559,4 -0.894,1.103 -1.53,2.104 -1.908,3.005 -0.38,0.9 -0.568,1.774 -0.568,2.625 0,1.425 0.395,2.723 1.187,3.896 0.79,1.172 1.865,2.107 3.223,2.802 1.359,0.696 2.88,1.045 4.565,1.045 1.582,0 2.992,-0.298 4.23,-0.892 1.238,-0.594 2.209,-1.409 2.914,-2.445 0.705,-1.037 1.058,-2.233 1.058,-3.592 0,-1.46 -0.439,-2.794 -1.315,-3.999 -0.878,-1.207 -2.03,-2.335 -3.457,-3.388 -1.426,-1.052 -2.948,-2.106 -4.565,-3.158 -1.444,-0.983 -2.794,-1.976 -4.049,-2.976 -1.255,-1.001 -2.252,-2.078 -2.991,-3.231 -0.74,-1.153 -1.11,-2.475 -1.11,-3.967 0,-1.628 0.465,-2.986 1.394,-4.07 0.928,-1.085 2.105,-1.908 3.532,-2.467 1.427,-0.559 2.88,-0.84 4.359,-0.84 1.96,0 3.748,0.439 5.364,1.317 1.617,0.876 3.018,2.079 4.204,3.61 1.187,1.53 2.098,3.276 2.734,5.236 0.637,1.96 0.955,4.023 0.955,6.189 h 2.269 c 0,-2.476 -0.386,-4.814 -1.16,-7.015 C -2.038,8.991 -3.13,7.031 -4.539,5.312 -5.95,3.593 -7.617,2.235 -9.543,1.238 c -1.926,-0.999 -4.058,-1.497 -6.396,-1.497 -2.029,0 -3.92,0.391 -5.674,1.173 -1.754,0.78 -3.164,1.884 -4.23,3.311 -1.066,1.426 -1.598,3.125 -1.598,5.094 0,1.801 0.429,3.379 1.289,4.739 0.859,1.358 1.994,2.589 3.404,3.693 1.41,1.103 2.905,2.182 4.488,3.235 1.685,1.085 3.163,2.093 4.435,3.026 1.272,0.931 2.261,1.864 2.967,2.797 0.704,0.931 1.057,1.939 1.057,3.024 0,1.424 -0.559,2.603 -1.676,3.535 -1.118,0.931 -2.52,1.398 -4.204,1.398 -1.238,0 -2.347,-0.254 -3.327,-0.763 -0.981,-0.509 -1.754,-1.187 -2.322,-2.034 -0.566,-0.848 -0.85,-1.78 -0.85,-2.796 0,-0.577 0.137,-1.196 0.412,-1.857 0.275,-0.661 0.808,-1.492 1.599,-2.491 0.791,-1 1.942,-2.28 3.457,-3.839 L 3.456,0 Z"
           id="path24" />
        <path
           transform="matrix(2.7777777,0,0,-2.7777777,2091.2408,2218.9993)"
           d="m 0,0 v 8.781 c -0.482,1.301 -1.256,2.491 -2.321,3.571 -1.067,1.077 -2.27,1.932 -3.612,2.566 -1.34,0.633 -2.665,0.95 -3.971,0.95 -1.548,0 -2.949,-0.326 -4.204,-0.976 -1.256,-0.651 -2.339,-1.523 -3.249,-2.619 -0.913,-1.096 -1.609,-2.336 -2.09,-3.723 -0.482,-1.386 -0.721,-2.816 -0.721,-4.287 0,-1.507 0.273,-2.954 0.825,-4.34 0.549,-1.387 1.315,-2.618 2.295,-3.697 0.98,-1.079 2.115,-1.917 3.404,-2.516 1.29,-0.6 2.69,-0.899 4.204,-0.899 0.928,0 1.916,0.188 2.966,0.565 1.048,0.377 2.046,0.898 2.992,1.565 0.945,0.668 1.736,1.439 2.373,2.311 C -0.474,-1.874 -0.104,-0.958 0,0 m -22.8,4.313 c 0,2.501 0.533,4.797 1.599,6.886 1.066,2.09 2.528,3.779 4.385,5.064 1.857,1.284 3.972,1.925 6.344,1.925 2.339,0 4.41,-0.618 6.216,-1.856 C -2.451,15.094 -1.032,13.615 0,11.896 V 28.66 H 2.579 V -5.59 c 0,-0.413 0.094,-0.722 0.283,-0.929 0.189,-0.206 0.455,-0.327 0.799,-0.361 V -8.994 C 3.111,-9.063 2.698,-9.08 2.424,-9.046 1.805,-8.943 1.289,-8.651 0.876,-8.169 0.464,-7.687 0.257,-7.172 0.257,-6.621 v 2.991 c -1.101,-1.788 -2.578,-3.216 -4.436,-4.281 -1.856,-1.067 -3.765,-1.599 -5.725,-1.599 -1.857,0 -3.577,0.386 -5.159,1.156 -1.582,0.77 -2.948,1.806 -4.1,3.109 -1.152,1.302 -2.046,2.774 -2.683,4.419 -0.636,1.644 -0.954,3.357 -0.954,5.139"
           id="path25" />
        <path
           transform="matrix(2.7777777,0,0,-2.7777777,2123.188,2204.153)"
           d="m 0,0 h 21.2 c -0.138,2.088 -0.688,3.937 -1.65,5.545 -0.963,1.608 -2.228,2.875 -3.792,3.799 -1.565,0.924 -3.293,1.385 -5.184,1.385 -1.891,0 -3.61,-0.461 -5.158,-1.385 C 3.868,8.42 2.612,7.153 1.65,5.545 0.687,3.937 0.137,2.088 0,0 m 10.678,-14.854 c -1.893,0 -3.646,0.368 -5.262,1.104 -1.616,0.736 -3.018,1.747 -4.203,3.032 -1.188,1.284 -2.115,2.775 -2.786,4.471 -0.671,1.695 -1.006,3.486 -1.006,5.371 0,2.535 0.567,4.83 1.702,6.885 1.135,2.055 2.699,3.708 4.694,4.959 1.994,1.252 4.23,1.876 6.705,1.876 2.545,0 4.798,-0.633 6.758,-1.902 1.96,-1.268 3.515,-2.939 4.667,-5.011 1.153,-2.074 1.729,-4.344 1.729,-6.811 v -0.618 c 0,-0.205 -0.018,-0.376 -0.051,-0.513 H 0.104 c 0.136,-2.019 0.704,-3.851 1.701,-5.494 0.998,-1.642 2.278,-2.934 3.843,-3.876 1.565,-0.941 3.276,-1.41 5.133,-1.41 1.857,0 3.611,0.48 5.261,1.443 1.65,0.962 2.802,2.201 3.456,3.714 l 2.27,-0.618 c -0.516,-1.272 -1.333,-2.407 -2.451,-3.404 -1.118,-0.999 -2.424,-1.78 -3.92,-2.348 -1.496,-0.567 -3.069,-0.85 -4.719,-0.85"
           id="path26" />
        <path
           transform="matrix(2.7777777,0,0,-2.7777777,2228.2144,2245.4156)"
           d="m 0,0 c -2.133,0 -4.109,0.36 -5.933,1.082 -1.823,0.723 -3.421,1.823 -4.796,3.302 l 1.186,1.805 c 1.478,-1.411 2.974,-2.433 4.487,-3.069 1.513,-0.637 3.163,-0.954 4.952,-0.954 2.303,0 4.169,0.479 5.597,1.438 1.427,0.957 2.141,2.292 2.141,4.001 0,1.166 -0.335,2.064 -1.006,2.698 -0.67,0.634 -1.634,1.147 -2.889,1.542 -1.256,0.394 -2.777,0.814 -4.564,1.259 -1.823,0.48 -3.362,0.976 -4.617,1.49 -1.255,0.514 -2.193,1.182 -2.812,2.005 -0.619,0.821 -0.929,1.935 -0.929,3.34 0,1.748 0.44,3.195 1.316,4.342 0.878,1.149 2.063,2.004 3.559,2.57 1.496,0.565 3.156,0.847 4.978,0.847 2.098,0 3.929,-0.344 5.494,-1.031 1.565,-0.688 2.759,-1.599 3.584,-2.733 L 8.355,22.283 c -0.859,1.1 -1.977,1.916 -3.352,2.449 -1.376,0.535 -2.889,0.8 -4.539,0.8 -1.238,0 -2.407,-0.172 -3.508,-0.513 -1.101,-0.343 -1.985,-0.9 -2.656,-1.669 -0.67,-0.771 -1.006,-1.807 -1.006,-3.108 0,-1.029 0.249,-1.835 0.748,-2.416 0.498,-0.582 1.246,-1.054 2.244,-1.413 C -2.718,16.054 -1.479,15.668 0,15.258 2.097,14.744 3.902,14.213 5.415,13.665 6.929,13.117 8.098,12.406 8.923,11.533 9.748,10.66 10.161,9.436 10.161,7.86 10.161,5.428 9.232,3.509 7.375,2.105 5.519,0.701 3.06,0 0,0"
           id="path27" />
        <path
           transform="matrix(2.7777777,0,0,-2.7777777,0,4166.6667)"
           d="m 818.405,718.988 h 2.579 v -26.82202 h -2.579 z m 0,10.832 h 2.579 v -4.745 h -2.579 z"
           id="path28" />
        <path
           transform="matrix(2.7777777,0,0,-2.7777777,2334.8118,2239.2579)"
           d="m 0,0 c 1.135,0 2.235,0.207 3.302,0.619 1.065,0.413 2.045,0.972 2.94,1.678 0.894,0.704 1.633,1.486 2.218,2.347 0.584,0.858 0.928,1.718 1.031,2.579 v 8.819 c -0.515,1.376 -1.298,2.605 -2.346,3.688 -1.049,1.084 -2.227,1.926 -3.534,2.529 -1.306,0.6 -2.648,0.902 -4.023,0.902 -1.617,0 -3.062,-0.345 -4.333,-1.031 -1.273,-0.689 -2.347,-1.592 -3.224,-2.709 -0.877,-1.117 -1.547,-2.372 -2.011,-3.765 -0.464,-1.393 -0.697,-2.777 -0.697,-4.153 0,-1.547 0.275,-3.009 0.825,-4.384 0.55,-1.376 1.316,-2.605 2.296,-3.687 0.98,-1.084 2.115,-1.927 3.405,-2.529 C -2.862,0.301 -1.479,0 0,0 m -0.618,-2.217 c -1.823,0 -3.517,0.378 -5.081,1.135 -1.565,0.755 -2.906,1.796 -4.024,3.12 -1.117,1.323 -1.995,2.803 -2.631,4.436 -0.636,1.632 -0.954,3.328 -0.954,5.082 0,1.822 0.301,3.576 0.903,5.26 0.601,1.685 1.462,3.173 2.58,4.462 1.116,1.29 2.431,2.313 3.945,3.07 1.513,0.756 3.198,1.133 5.055,1.133 2.339,0 4.376,-0.601 6.113,-1.804 1.736,-1.204 3.206,-2.682 4.409,-4.436 v 5.828 h 2.374 v -27.3 c 0,-2.404 -0.586,-4.43 -1.755,-6.08 -1.169,-1.648 -2.716,-2.875 -4.642,-3.682 -1.926,-0.807 -4.006,-1.211 -6.24,-1.211 -3.13,0 -5.616,0.567 -7.455,1.702 -1.839,1.135 -3.327,2.631 -4.461,4.487 l 1.753,1.188 c 1.066,-1.788 2.51,-3.113 4.333,-3.973 1.823,-0.858 3.766,-1.289 5.83,-1.289 1.821,0 3.498,0.331 5.029,0.993 1.529,0.663 2.75,1.649 3.661,2.959 0.911,1.309 1.367,2.914 1.367,4.818 V 3.56 C 8.425,1.807 6.972,0.404 5.133,-0.644 3.293,-1.693 1.376,-2.217 -0.618,-2.217"
           id="path29" />
        <path
           transform="matrix(2.7777777,0,0,-2.7777777,2451.587,2243.9832)"
           d="m 0,0 h -2.579 v 14.896 c 0,3.425 -0.49,5.933 -1.47,7.526 -0.98,1.593 -2.537,2.389 -4.669,2.389 -1.512,0 -3,-0.36 -4.461,-1.079 -1.462,-0.718 -2.734,-1.702 -3.817,-2.952 -1.084,-1.249 -1.865,-2.66 -2.347,-4.234 V 0 h -2.579 v 26.771 h 2.424 v -6.422 c 0.723,1.37 1.685,2.56 2.89,3.571 1.202,1.011 2.543,1.808 4.022,2.39 1.478,0.582 3.009,0.873 4.591,0.873 1.478,0 2.724,-0.266 3.74,-0.795 1.014,-0.533 1.839,-1.294 2.476,-2.287 0.635,-0.995 1.092,-2.227 1.366,-3.701 C -0.138,18.928 0,17.248 0,15.365 Z"
           id="path30" />
        <path
           transform="matrix(2.7777777,0,0,-2.7777777,0,4166.6667)"
           d="m 454.011,625.322 h -2 v 249.355 h 2 z"
           fill="#231f20"
           id="path31" />
      </g>
    </g>
  </g>
</svg>
